<?xml version="1.0" encoding="utf-8"?>
<!-- Generator: Adobe Illustrator 25.2.3, SVG Export Plug-In . SVG Version: 6.00 Build 0)  -->
<svg version="1.1" id="Слой_1" xmlns="http://www.w3.org/2000/svg" xmlns:xlink="http://www.w3.org/1999/xlink" x="0px" y="0px"
	 viewBox="0 0 184 25.82" style="enable-background:new 0 0 184 25.82;" xml:space="preserve">
<style type="text/css">
	.st0{fill:#A80000;}
	.st1{fill:#FFFFFF;}
</style>
<g>
	<rect x="96.88" class="st0" width="87.31" height="25.51"/>
	<g>
		<path class="st1" d="M0.19,3.18c0-0.38,0.13-0.71,0.4-0.98c0.27-0.27,0.6-0.4,0.98-0.4c0.38,0,0.71,0.14,0.98,0.4
			c0.27,0.27,0.4,0.6,0.4,0.98v16.74h9.69c0.38,0,0.71,0.14,0.98,0.4c0.27,0.27,0.4,0.6,0.4,0.98c0,0.38-0.14,0.71-0.4,0.98
			c-0.27,0.27-0.6,0.4-0.98,0.4H1.57c-0.2,0-0.38-0.03-0.55-0.1c-0.17-0.07-0.31-0.17-0.44-0.29c-0.13-0.13-0.22-0.27-0.29-0.44
			c-0.07-0.17-0.1-0.35-0.1-0.55V3.18z"/>
		<path class="st1" d="M27.04,18.57c0.39,0,0.72,0.13,0.97,0.39c0.26,0.26,0.39,0.58,0.39,0.97c0,0.38-0.13,0.71-0.39,0.98
			c-1.35,1.18-2.94,1.78-4.78,1.78c-2.02,0-3.74-0.71-5.17-2.14c-1.43-1.43-2.14-3.15-2.14-5.17c0-2.02,0.71-3.74,2.14-5.17
			c1.43-1.43,3.15-2.14,5.17-2.14c2,0,3.73,0.71,5.17,2.14c0.71,0.71,1.25,1.49,1.61,2.36c0.36,0.87,0.54,1.8,0.54,2.81
			c0,0.39-0.13,0.72-0.4,0.97c-0.27,0.26-0.59,0.39-0.97,0.39H18.83c0.15,0.48,0.37,0.92,0.65,1.31c0.29,0.4,0.62,0.74,1.01,1.02
			c0.39,0.28,0.81,0.5,1.28,0.66c0.47,0.16,0.95,0.24,1.46,0.24c0.57,0,1.1-0.09,1.58-0.26c0.48-0.17,0.92-0.44,1.33-0.78
			C26.4,18.7,26.71,18.58,27.04,18.57z M27.63,14.02c-0.15-0.48-0.37-0.92-0.66-1.31c-0.29-0.4-0.63-0.74-1.02-1.02
			c-0.39-0.28-0.81-0.5-1.28-0.66c-0.47-0.16-0.95-0.24-1.44-0.24c-0.5,0-0.98,0.08-1.45,0.24c-0.47,0.16-0.9,0.38-1.29,0.66
			c-0.39,0.28-0.73,0.62-1.02,1.02c-0.29,0.4-0.5,0.83-0.64,1.31H27.63z"/>
		<path class="st1" d="M44.53,21.33v-0.26c-0.65,0.52-1.36,0.92-2.13,1.2c-0.77,0.28-1.58,0.42-2.45,0.42
			c-2.02,0-3.74-0.71-5.17-2.14c-1.43-1.43-2.14-3.15-2.14-5.17c0-2.02,0.71-3.74,2.14-5.17c1.43-1.43,3.15-2.14,5.17-2.14
			c2,0,3.73,0.71,5.17,2.14c1.43,1.43,2.14,3.15,2.14,5.17v5.95c0,0.37-0.13,0.69-0.4,0.96c-0.27,0.27-0.59,0.4-0.96,0.4
			c-0.38,0-0.71-0.13-0.97-0.4C44.66,22.02,44.53,21.7,44.53,21.33z M39.94,10.79c-0.64,0-1.24,0.12-1.8,0.37
			c-0.56,0.24-1.04,0.57-1.45,0.99c-0.41,0.41-0.73,0.9-0.97,1.46c-0.24,0.56-0.36,1.15-0.36,1.78c0,0.63,0.12,1.22,0.36,1.78
			c0.24,0.56,0.56,1.04,0.97,1.46c0.41,0.41,0.89,0.74,1.45,0.99c0.56,0.24,1.16,0.37,1.8,0.37c0.64,0,1.23-0.12,1.79-0.37
			c0.56-0.24,1.04-0.57,1.46-0.99c0.41-0.42,0.74-0.9,0.98-1.46c0.24-0.55,0.36-1.14,0.36-1.77c0-0.63-0.12-1.22-0.36-1.77
			c-0.24-0.55-0.57-1.04-0.98-1.46c-0.41-0.42-0.9-0.75-1.46-0.99C41.18,10.91,40.58,10.79,39.94,10.79z"/>
		<path class="st1" d="M56.66,8.06c1.73,0,3.26,0.54,4.58,1.61V3.16c0-0.39,0.13-0.72,0.39-0.97C61.88,1.93,62.2,1.8,62.6,1.8
			c0.38,0,0.71,0.13,0.97,0.39c0.27,0.26,0.4,0.58,0.4,0.97v12.22c0,2.04-0.71,3.76-2.14,5.17c-1.44,1.43-3.17,2.14-5.17,2.14
			c-2.02,0-3.74-0.71-5.17-2.14c-1.43-1.43-2.14-3.15-2.14-5.17c0-2.02,0.71-3.74,2.14-5.17C52.91,8.78,54.64,8.06,56.66,8.06z
			 M61.24,15.38c0-0.63-0.12-1.22-0.36-1.77c-0.24-0.55-0.57-1.04-0.98-1.46c-0.41-0.42-0.9-0.75-1.46-0.99
			c-0.56-0.24-1.15-0.37-1.79-0.37c-0.64,0-1.24,0.12-1.8,0.37c-0.56,0.24-1.04,0.57-1.45,0.99c-0.41,0.41-0.73,0.9-0.97,1.46
			c-0.24,0.56-0.36,1.15-0.36,1.78c0,0.63,0.12,1.22,0.36,1.78c0.24,0.56,0.56,1.04,0.97,1.46c0.41,0.41,0.89,0.74,1.45,0.99
			c0.56,0.24,1.16,0.37,1.8,0.37c0.64,0,1.23-0.12,1.79-0.37c0.56-0.24,1.04-0.57,1.46-0.99c0.41-0.42,0.74-0.9,0.98-1.46
			C61.12,16.59,61.24,16,61.24,15.38z"/>
		<path class="st1" d="M77.18,18.57c0.39,0,0.72,0.13,0.97,0.39c0.26,0.26,0.39,0.58,0.39,0.97c0,0.38-0.13,0.71-0.39,0.98
			c-1.35,1.18-2.94,1.78-4.78,1.78c-2.02,0-3.74-0.71-5.17-2.14c-1.43-1.43-2.14-3.15-2.14-5.17c0-2.02,0.71-3.74,2.14-5.17
			c1.43-1.43,3.15-2.14,5.17-2.14c2,0,3.73,0.71,5.17,2.14c0.71,0.71,1.25,1.49,1.61,2.36c0.36,0.87,0.54,1.8,0.54,2.81
			c0,0.39-0.13,0.72-0.4,0.97c-0.27,0.26-0.59,0.39-0.97,0.39H68.97c0.15,0.48,0.37,0.92,0.65,1.31c0.29,0.4,0.62,0.74,1.01,1.02
			c0.39,0.28,0.81,0.5,1.28,0.66c0.47,0.16,0.95,0.24,1.46,0.24c0.57,0,1.1-0.09,1.58-0.26c0.48-0.17,0.92-0.44,1.33-0.78
			C76.54,18.7,76.84,18.58,77.18,18.57z M77.77,14.02c-0.15-0.48-0.37-0.92-0.66-1.31c-0.29-0.4-0.63-0.74-1.02-1.02
			c-0.39-0.28-0.81-0.5-1.28-0.66c-0.47-0.16-0.95-0.24-1.44-0.24s-0.98,0.08-1.45,0.24c-0.47,0.16-0.9,0.38-1.29,0.66
			c-0.39,0.28-0.73,0.62-1.02,1.02c-0.29,0.4-0.5,0.83-0.64,1.31H77.77z"/>
		<path class="st1" d="M85.44,9.42v0.26c0.65-0.52,1.36-0.92,2.13-1.2c0.77-0.28,1.58-0.42,2.45-0.42c0.38,0,0.79,0.03,1.23,0.08
			c0.44,0.05,0.84,0.15,1.21,0.28c0.37,0.14,0.68,0.32,0.92,0.55c0.24,0.24,0.37,0.54,0.37,0.91c0,0.19-0.04,0.37-0.11,0.54
			c-0.07,0.17-0.17,0.31-0.29,0.44c-0.12,0.13-0.27,0.22-0.43,0.29c-0.17,0.07-0.34,0.1-0.54,0.1c-0.17,0-0.36-0.05-0.57-0.14
			c-0.55-0.22-1.14-0.33-1.79-0.33c-0.64,0-1.23,0.12-1.79,0.36c-0.56,0.24-1.04,0.57-1.46,0.98c-0.41,0.41-0.74,0.9-0.98,1.46
			c-0.24,0.56-0.36,1.15-0.36,1.79v5.95c0,0.37-0.13,0.69-0.4,0.96c-0.27,0.27-0.59,0.4-0.96,0.4c-0.38,0-0.71-0.13-0.97-0.4
			c-0.27-0.27-0.4-0.59-0.4-0.96V9.42c0-0.37,0.13-0.69,0.4-0.96c0.27-0.27,0.59-0.4,0.97-0.4c0.37,0,0.69,0.13,0.96,0.4
			C85.31,8.73,85.44,9.05,85.44,9.42z"/>
	</g>
	<g>
		<path class="st1" d="M104.53,9.68c1.3-1.08,2.82-1.62,4.58-1.62c2,0,3.73,0.71,5.17,2.14c0.71,0.71,1.25,1.49,1.61,2.36
			c0.36,0.87,0.54,1.8,0.54,2.81c0,2.04-0.71,3.76-2.14,5.17c-1.44,1.43-3.17,2.14-5.17,2.14c-2.02,0-3.74-0.71-5.17-2.14
			c-1.43-1.43-2.14-3.15-2.14-5.17V3.16c0-0.39,0.13-0.72,0.39-0.97c0.26-0.26,0.58-0.39,0.97-0.39c0.38,0,0.71,0.13,0.97,0.39
			c0.27,0.26,0.4,0.58,0.4,0.97V9.68z M109.11,19.96c0.64,0,1.23-0.12,1.79-0.37c0.56-0.24,1.04-0.57,1.46-0.99
			c0.41-0.42,0.74-0.9,0.98-1.46c0.24-0.55,0.36-1.14,0.36-1.77c0-0.63-0.12-1.22-0.36-1.77c-0.24-0.55-0.57-1.04-0.98-1.46
			c-0.41-0.42-0.9-0.75-1.46-0.99c-0.56-0.24-1.15-0.37-1.79-0.37c-0.64,0-1.24,0.12-1.8,0.37c-0.56,0.24-1.04,0.57-1.45,0.99
			c-0.41,0.41-0.73,0.9-0.97,1.46c-0.24,0.56-0.36,1.15-0.36,1.78c0,0.63,0.12,1.22,0.36,1.78c0.24,0.56,0.56,1.04,0.97,1.46
			c0.41,0.41,0.89,0.74,1.45,0.99C107.86,19.84,108.46,19.96,109.11,19.96z"/>
		<path class="st1" d="M133.13,15.38c0,2.04-0.71,3.76-2.14,5.17c-1.44,1.43-3.17,2.14-5.17,2.14c-2.02,0-3.74-0.71-5.17-2.14
			c-1.43-1.43-2.14-3.15-2.14-5.17c0-2.02,0.71-3.74,2.14-5.17c1.43-1.43,3.15-2.14,5.17-2.14c2,0,3.73,0.71,5.17,2.14
			c0.71,0.71,1.25,1.5,1.6,2.36C132.94,13.43,133.12,14.37,133.13,15.38z M125.82,10.79c-0.64,0-1.24,0.12-1.8,0.37
			c-0.56,0.24-1.04,0.57-1.45,0.99c-0.41,0.41-0.73,0.9-0.97,1.46c-0.24,0.56-0.36,1.15-0.36,1.78c0,0.63,0.12,1.22,0.36,1.78
			c0.24,0.56,0.56,1.04,0.97,1.46c0.41,0.41,0.89,0.74,1.45,0.99c0.56,0.24,1.16,0.37,1.8,0.37c0.64,0,1.23-0.12,1.79-0.37
			c0.56-0.24,1.04-0.57,1.46-0.99c0.41-0.42,0.74-0.9,0.98-1.46c0.24-0.55,0.36-1.14,0.36-1.77c0-0.63-0.12-1.22-0.36-1.77
			c-0.24-0.55-0.57-1.04-0.98-1.46c-0.41-0.42-0.9-0.75-1.46-0.99C127.05,10.92,126.46,10.79,125.82,10.79z"/>
		<path class="st1" d="M147.12,21.33v-0.26c-0.65,0.52-1.36,0.92-2.13,1.2c-0.77,0.28-1.58,0.42-2.45,0.42
			c-2.02,0-3.74-0.71-5.17-2.14c-1.43-1.43-2.14-3.15-2.14-5.17c0-2.02,0.71-3.74,2.14-5.17c1.43-1.43,3.15-2.14,5.17-2.14
			c2,0,3.73,0.71,5.17,2.14c1.43,1.43,2.14,3.15,2.14,5.17v5.95c0,0.37-0.13,0.69-0.4,0.96c-0.27,0.27-0.59,0.4-0.96,0.4
			c-0.38,0-0.71-0.13-0.97-0.4C147.25,22.02,147.12,21.7,147.12,21.33z M142.53,10.79c-0.64,0-1.24,0.12-1.8,0.37
			c-0.56,0.24-1.04,0.57-1.45,0.99c-0.41,0.41-0.73,0.9-0.97,1.46c-0.24,0.56-0.36,1.15-0.36,1.78c0,0.63,0.12,1.22,0.36,1.78
			c0.24,0.56,0.56,1.04,0.97,1.46c0.41,0.41,0.89,0.74,1.45,0.99c0.56,0.24,1.16,0.37,1.8,0.37c0.64,0,1.23-0.12,1.79-0.37
			c0.56-0.24,1.04-0.57,1.46-0.99c0.41-0.42,0.74-0.9,0.98-1.46c0.24-0.55,0.36-1.14,0.36-1.77c0-0.63-0.12-1.22-0.36-1.77
			c-0.24-0.55-0.57-1.04-0.98-1.46c-0.41-0.42-0.9-0.75-1.46-0.99C143.76,10.92,143.17,10.79,142.53,10.79z"/>
		<path class="st1" d="M154.61,9.42v0.26c0.65-0.52,1.36-0.92,2.13-1.2c0.77-0.28,1.58-0.42,2.45-0.42c0.38,0,0.79,0.03,1.23,0.08
			c0.44,0.05,0.84,0.15,1.21,0.28c0.37,0.14,0.68,0.32,0.92,0.55s0.37,0.54,0.37,0.91c0,0.19-0.04,0.37-0.11,0.54
			c-0.07,0.17-0.17,0.31-0.29,0.44c-0.12,0.13-0.27,0.22-0.43,0.29c-0.17,0.07-0.34,0.1-0.54,0.1c-0.17,0-0.36-0.05-0.57-0.14
			c-0.55-0.22-1.14-0.33-1.79-0.33c-0.64,0-1.23,0.12-1.79,0.36c-0.56,0.24-1.04,0.57-1.46,0.98c-0.41,0.41-0.74,0.9-0.98,1.46
			c-0.24,0.56-0.36,1.15-0.36,1.79v5.95c0,0.37-0.13,0.69-0.4,0.96c-0.27,0.27-0.59,0.4-0.96,0.4c-0.38,0-0.71-0.13-0.97-0.4
			c-0.27-0.27-0.4-0.59-0.4-0.96V9.42c0-0.37,0.13-0.69,0.4-0.96c0.27-0.27,0.59-0.4,0.97-0.4c0.37,0,0.69,0.13,0.96,0.4
			C154.48,8.73,154.61,9.05,154.61,9.42z"/>
		<path class="st1" d="M171.78,8.06c1.73,0,3.26,0.54,4.58,1.61V3.16c0-0.39,0.13-0.72,0.39-0.97c0.26-0.26,0.58-0.39,0.97-0.39
			c0.38,0,0.71,0.13,0.97,0.39c0.27,0.26,0.4,0.58,0.4,0.97v12.22c0,2.04-0.71,3.76-2.14,5.17c-1.44,1.43-3.17,2.14-5.17,2.14
			c-2.02,0-3.74-0.71-5.17-2.14c-1.43-1.43-2.14-3.15-2.14-5.17c0-2.02,0.71-3.74,2.14-5.17C168.03,8.78,169.76,8.06,171.78,8.06z
			 M176.36,15.38c0-0.63-0.12-1.22-0.36-1.77c-0.24-0.55-0.57-1.04-0.98-1.46c-0.41-0.42-0.9-0.75-1.46-0.99
			c-0.56-0.24-1.15-0.37-1.79-0.37c-0.64,0-1.24,0.12-1.8,0.37c-0.56,0.24-1.04,0.57-1.45,0.99c-0.41,0.41-0.73,0.9-0.97,1.46
			c-0.24,0.56-0.36,1.15-0.36,1.78c0,0.63,0.12,1.22,0.36,1.78c0.24,0.56,0.56,1.04,0.97,1.46c0.41,0.41,0.89,0.74,1.45,0.99
			c0.56,0.24,1.16,0.37,1.8,0.37c0.64,0,1.23-0.12,1.79-0.37c0.56-0.24,1.04-0.57,1.46-0.99c0.41-0.42,0.74-0.9,0.98-1.46
			C176.24,16.59,176.36,16,176.36,15.38z"/>
	</g>
</g>
</svg>
